<svg width="24" height="24" viewBox="0 0 24 24" fill="none" xmlns="http://www.w3.org/2000/svg">
<path fill-rule="evenodd" clip-rule="evenodd" d="M2 11.9524C2 6.7999 5.93864 4.00001 13.1154 4C20.2921 3.99999 22.9411 9.79431 21.7093 14.877C20.6182 19.3789 15.7185 20.6667 10.6891 20.6667C7.26947 20.6667 5.58761 20.1893 3.19413 19.2255C2.8075 19.0698 2.24026 18.7032 2.58934 18.4755C2.62334 18.4533 2.66323 18.4409 2.70821 18.4427C5.75577 18.5688 10.4185 18.4169 11.6105 14.877C11.9132 13.9956 12.0646 13.0296 12.0646 11.9791C12.0646 11.2758 11.9533 10.7015 11.7307 10.2564C11.5081 9.81124 11.1609 9.58867 10.6891 9.58867C10.2706 9.58867 9.95901 9.70441 9.75425 9.93588C9.55838 10.1674 9.46045 10.4834 9.46045 10.884L9.4738 11.4583C9.48271 11.574 9.48716 11.7432 9.48716 11.9657C9.48716 12.3842 9.43374 12.7047 9.3269 12.9273C9.22007 13.1409 9.0064 13.2478 8.68589 13.2478C8.36539 13.2478 8.15172 13.1409 8.04488 12.9273C7.93805 12.7047 7.88463 12.3797 7.88463 11.9524C7.88463 11.7298 7.88908 11.5607 7.89798 11.4449L7.91134 10.8573C7.91134 10.4834 7.80895 10.1807 7.60418 9.94924C7.40832 9.70886 7.10116 9.58867 6.68273 9.58867C6.21087 9.58867 5.86366 9.81124 5.64108 10.2564C5.42741 10.6926 5.32058 11.2669 5.32058 11.9791C5.32058 12.8071 5.42741 13.4748 5.64108 13.9823C5.86366 14.4808 6.21977 14.8503 6.70944 15.0907C7.1991 15.3222 7.85347 15.4379 8.67254 15.4379C7.54325 18.541 2 17.3661 2 11.9524ZM18.377 13.4748C18.0832 13.0118 17.8695 12.6958 17.736 12.5266C18.1722 12.2061 18.4972 11.9123 18.7109 11.6452C18.9245 11.3782 19.0314 11.0844 19.0314 10.7639C19.0314 10.4612 18.9245 10.1896 18.7109 9.94924C18.5061 9.69995 18.2212 9.57531 17.8562 9.57531C17.5357 9.57531 17.1751 9.67325 16.7745 9.86911C16.3827 10.065 15.9287 10.3365 15.4123 10.6837L15.3723 10.7104V9.86911C15.3723 9.08565 15.3411 8.46245 15.2788 7.99949C15.2254 7.52764 15.1007 7.15817 14.9049 6.89108C14.7179 6.62399 14.433 6.49044 14.0502 6.49044C13.5872 6.49044 13.24 6.68186 13.0086 7.06468C12.7771 7.43861 12.6257 7.95053 12.5545 8.60044C12.4922 9.24145 12.461 10.0917 12.461 11.1511C12.461 12.264 12.51 13.1587 12.6079 13.8354C12.7148 14.512 12.8839 15.0106 13.1154 15.3311C13.3469 15.6516 13.6585 15.8118 14.0502 15.8118C14.433 15.8118 14.7179 15.6605 14.9049 15.3578C15.0918 15.0551 15.2165 14.5699 15.2788 13.9021C15.4212 13.8576 15.5503 13.8131 15.6661 13.7686C15.764 13.9377 15.9643 14.2226 16.267 14.6233C16.5519 14.9883 16.8234 15.2776 17.0816 15.4913C17.3487 15.705 17.6113 15.8118 17.8695 15.8118C18.1455 15.8118 18.3859 15.7361 18.5907 15.5848C18.7954 15.4245 18.8978 15.1886 18.8978 14.877C18.8978 14.4942 18.7242 14.0268 18.377 13.4748Z" fill="#00B350"/>
</svg>
